<svg width="20" height="20" viewBox="0 0 20 20" fill="none" xmlns="http://www.w3.org/2000/svg">
<path fill-rule="evenodd" clip-rule="evenodd" d="M8.232 11.768C8.46397 12.0004 8.73957 12.1848 9.04297 12.3104C9.34638 12.436 9.67162 12.5004 10 12.5C10.672 12.5 11.302 12.233 11.768 11.768C12.0004 11.536 12.1848 11.2604 12.3104 10.957C12.436 10.6536 12.5004 10.3284 12.5 10C12.5 9.328 12.233 8.698 11.768 8.232C11.536 7.99956 11.2604 7.81524 10.957 7.68962C10.6536 7.564 10.3284 7.49956 10 7.5C9.328 7.5 8.698 7.767 8.232 8.232C7.99956 8.46397 7.81524 8.73957 7.68962 9.04297C7.564 9.34638 7.49956 9.67162 7.5 10C7.5 10.672 7.767 11.302 8.232 11.768ZM11.061 11.061C10.781 11.341 10.404 11.5 10 11.5C9.596 11.5 9.22 11.34 8.94 11.06C8.66 10.78 8.5 10.405 8.5 10C8.5 9.595 8.66 9.22 8.94 8.94C9.22 8.66 9.596 8.5 10 8.5C10.404 8.5 10.78 8.66 11.06 8.94C11.34 9.22 11.5 9.596 11.5 10C11.5 10.404 11.34 10.78 11.06 11.06L11.061 11.061Z" fill="white"/>
<path fill-rule="evenodd" clip-rule="evenodd" d="M14.216 3.773L12.946 4.487C12.5746 4.28787 12.1839 4.12704 11.78 4.007L11.31 2.593C11.277 2.49329 11.2135 2.4065 11.1284 2.34493C11.0433 2.28336 10.941 2.25015 10.836 2.25H9.06C8.951 2.25009 8.84501 2.2858 8.75818 2.3517C8.67135 2.41759 8.60843 2.51005 8.579 2.615L8.187 4.018C7.78352 4.1401 7.39351 4.30294 7.023 4.504L5.69 3.835C5.59601 3.78792 5.48956 3.77166 5.3858 3.78853C5.28203 3.80541 5.18623 3.85456 5.112 3.929L3.855 5.185C3.77781 5.2622 3.72802 5.36254 3.71321 5.4707C3.6984 5.57886 3.7194 5.68889 3.773 5.784L4.487 7.054C4.288 7.424 4.127 7.814 4.007 8.22L2.593 8.69C2.49329 8.72298 2.4065 8.78651 2.34493 8.87159C2.28336 8.95667 2.25015 9.05898 2.25 9.164V10.941C2.25009 11.05 2.2858 11.156 2.3517 11.2428C2.41759 11.3296 2.51005 11.3926 2.615 11.422L4.018 11.814C4.14 12.219 4.303 12.608 4.504 12.978L3.835 14.311C3.78792 14.405 3.77166 14.5114 3.78853 14.6152C3.80541 14.719 3.85456 14.8148 3.929 14.889L5.185 16.145C5.2622 16.2222 5.36254 16.272 5.4707 16.2868C5.57886 16.3016 5.68889 16.2806 5.784 16.227L7.054 15.513C7.424 15.712 7.814 15.873 8.22 15.993L8.69 17.407C8.72298 17.5067 8.78651 17.5935 8.87159 17.6551C8.95667 17.7166 9.05898 17.7499 9.164 17.75H10.941C11.05 17.7499 11.156 17.7142 11.2428 17.6483C11.3296 17.5824 11.3926 17.49 11.422 17.385L11.814 15.982C12.2175 15.8599 12.6075 15.6971 12.978 15.496L14.311 16.165C14.4049 16.2122 14.5113 16.2286 14.615 16.2119C14.7188 16.1952 14.8147 16.1463 14.889 16.072L16.145 14.815C16.2222 14.7378 16.272 14.6375 16.2868 14.5293C16.3016 14.4211 16.2806 14.3111 16.227 14.216L15.513 12.946C15.712 12.576 15.873 12.186 15.993 11.78L17.407 11.31C17.5067 11.277 17.5935 11.2135 17.6551 11.1284C17.7166 11.0433 17.7499 10.941 17.75 10.836V9.06C17.7499 8.951 17.7142 8.84501 17.6483 8.75818C17.5824 8.67135 17.49 8.60843 17.385 8.579L15.982 8.187C15.8599 7.78351 15.6971 7.39349 15.496 7.023L16.165 5.69C16.2122 5.59611 16.2286 5.48972 16.2119 5.38597C16.1952 5.28221 16.1463 5.18635 16.072 5.112L14.815 3.856C14.7378 3.77881 14.6375 3.72902 14.5293 3.71421C14.4211 3.6994 14.3111 3.7194 14.216 3.773ZM13.192 5.497L14.376 4.83L15.109 5.563L14.482 6.813C14.4443 6.88842 14.4262 6.97217 14.4295 7.05644C14.4329 7.14072 14.4574 7.22278 14.501 7.295C14.766 7.735 14.965 8.213 15.091 8.713C15.1124 8.79854 15.1561 8.87689 15.2175 8.94012C15.279 9.00334 15.3561 9.04919 15.441 9.073L16.75 9.439V10.476L15.423 10.916C15.3429 10.9425 15.2708 10.9889 15.2135 11.0508C15.1561 11.1127 15.1154 11.1881 15.095 11.27C14.9711 11.7696 14.774 12.2481 14.51 12.69C14.4647 12.7656 14.4402 12.8519 14.4389 12.9401C14.4377 13.0282 14.4598 13.1151 14.503 13.192L15.17 14.376L14.437 15.109L13.187 14.482C13.1116 14.4443 13.0278 14.4262 12.9436 14.4295C12.8593 14.4329 12.7772 14.4574 12.705 14.501C12.265 14.766 11.787 14.965 11.287 15.091C11.2015 15.1124 11.1231 15.1561 11.0599 15.2175C10.9967 15.279 10.9508 15.3561 10.927 15.441L10.561 16.75H9.525L9.085 15.423C9.05837 15.3428 9.01185 15.2706 8.94977 15.2133C8.88768 15.1559 8.81207 15.1152 8.73 15.095C8.2304 14.9711 7.75188 14.774 7.31 14.51C7.23437 14.4647 7.1481 14.4402 7.05994 14.4389C6.97178 14.4377 6.88486 14.4598 6.808 14.503L5.624 15.17L4.891 14.437L5.518 13.187C5.55574 13.1116 5.57379 13.0278 5.57047 12.9436C5.56715 12.8593 5.54256 12.7772 5.499 12.705C5.23344 12.264 5.03462 11.7862 4.909 11.287C4.88759 11.2015 4.84393 11.1231 4.78246 11.0599C4.721 10.9967 4.6439 10.9508 4.559 10.927L3.25 10.561V9.525L4.577 9.085C4.65704 9.05823 4.72899 9.01164 4.78617 8.94957C4.84335 8.8875 4.88388 8.81196 4.904 8.73C5.029 8.23 5.227 7.751 5.49 7.31C5.53532 7.23437 5.55984 7.1481 5.56107 7.05994C5.5623 6.97178 5.5402 6.88486 5.497 6.808L4.83 5.624L5.563 4.891L6.813 5.518C6.88842 5.55574 6.97217 5.57379 7.05644 5.57047C7.14072 5.56715 7.22278 5.54256 7.295 5.499C7.735 5.234 8.213 5.035 8.713 4.909C8.79854 4.88759 8.87689 4.84393 8.94012 4.78246C9.00334 4.721 9.04919 4.6439 9.073 4.559L9.439 3.25H10.476L10.916 4.577C10.9427 4.65692 10.9891 4.7288 11.051 4.78596C11.1129 4.84313 11.1882 4.88373 11.27 4.904C11.77 5.029 12.249 5.227 12.69 5.49C12.7656 5.53532 12.8519 5.55984 12.9401 5.56107C13.0282 5.5623 13.1151 5.5402 13.192 5.497Z" fill="white"/>
</svg>
