<svg width="25" height="24" viewBox="0 0 25 24" fill="none" xmlns="http://www.w3.org/2000/svg">
<path d="M20.672 6.75003H18.811L14.245 11.314C14.4022 11.7148 14.4167 12.1575 14.2859 12.5677C14.1552 12.9779 13.8871 13.3306 13.5269 13.5664C13.1667 13.8022 12.7363 13.9068 12.308 13.8626C11.8798 13.8184 11.4798 13.6281 11.1753 13.3237C10.8709 13.0192 10.6806 12.6192 10.6364 12.191C10.5922 11.7627 10.6968 11.3323 10.9326 10.9721C11.1684 10.6119 11.5211 10.3438 11.9313 10.2131C12.3415 10.0823 12.7842 10.0968 13.185 10.254L17.75 5.68903V3.82803C17.7501 3.57901 17.849 3.3402 18.025 3.16403L19.755 1.43403C19.7869 1.40172 19.8271 1.37876 19.8712 1.36766C19.9153 1.35655 19.9615 1.35772 20.005 1.37103C20.094 1.39703 20.16 1.47103 20.178 1.56203L20.638 3.86303L22.938 4.32303C23.028 4.34103 23.102 4.40703 23.128 4.49603C23.1411 4.53926 23.1423 4.58525 23.1314 4.62909C23.1204 4.67294 23.0978 4.713 23.066 4.74503L21.335 6.47503C21.248 6.56219 21.1446 6.63134 21.0309 6.67853C20.9171 6.72572 20.7951 6.75002 20.672 6.75003Z" fill="#F8F8F8"/>
<path d="M3.125 12C3.125 14.4864 4.11272 16.871 5.87087 18.6291C7.62903 20.3873 10.0136 21.375 12.5 21.375C13.7311 21.375 14.9502 21.1325 16.0877 20.6614C17.2251 20.1902 18.2586 19.4997 19.1291 18.6291C19.9997 17.7586 20.6902 16.7251 21.1614 15.5877C21.6325 14.4502 21.875 13.2311 21.875 12C21.875 11.102 21.749 10.234 21.514 9.41301C21.4673 9.2245 21.4955 9.02522 21.5928 8.8571C21.69 8.68899 21.8487 8.56515 22.0353 8.51164C22.222 8.45813 22.4222 8.47913 22.5937 8.57021C22.7653 8.6613 22.8948 8.81537 22.955 9.00001C23.229 9.95401 23.375 10.96 23.375 12C23.375 18.006 18.506 22.875 12.5 22.875C6.494 22.875 1.625 18.006 1.625 12C1.625 5.99401 6.494 1.12501 12.5 1.12501C13.515 1.12401 14.524 1.26501 15.5 1.54401C15.5952 1.5707 15.6841 1.61594 15.7617 1.67713C15.8393 1.73831 15.9041 1.81423 15.9523 1.90053C16.0005 1.98683 16.0311 2.0818 16.0425 2.17998C16.0538 2.27816 16.0457 2.37762 16.0184 2.47264C15.9912 2.56765 15.9455 2.65635 15.8839 2.73364C15.8223 2.81092 15.746 2.87527 15.6595 2.92297C15.5729 2.97068 15.4778 3.00081 15.3795 3.01163C15.2813 3.02244 15.1819 3.01374 15.087 2.98601C14.2457 2.74573 13.3749 2.62423 12.5 2.62501C10.0136 2.62501 7.62903 3.61273 5.87087 5.37088C4.11272 7.12903 3.125 9.5136 3.125 12Z" fill="#F8F8F8"/>
<path d="M7.62499 12C7.62778 12.6624 7.76553 13.3172 8.02983 13.9245C8.29414 14.5318 8.67945 15.0788 9.16223 15.5323C9.64502 15.9857 10.2152 16.336 10.8378 16.5617C11.4605 16.7874 12.1227 16.8839 12.7839 16.8452C13.4451 16.8064 14.0914 16.6334 14.6835 16.3365C15.2756 16.0396 15.8009 15.6252 16.2275 15.1186C16.6541 14.6119 16.9729 14.0236 17.1645 13.3896C17.3561 12.7556 17.4165 12.0892 17.342 11.431C17.321 11.2977 17.3364 11.1613 17.3867 11.036C17.4369 10.9108 17.5201 10.8015 17.6274 10.7197C17.7348 10.6379 17.8622 10.5867 17.9963 10.5714C18.1303 10.5562 18.266 10.5775 18.389 10.633C18.64 10.745 18.809 10.984 18.831 11.258C18.9863 12.5733 18.7279 13.9042 18.0919 15.0659C17.4558 16.2275 16.4737 17.1622 15.282 17.7399C14.0902 18.3176 12.7481 18.5097 11.4422 18.2895C10.1362 18.0692 8.93135 17.4476 7.99499 16.511C7.05888 15.5755 6.43711 14.3718 6.21591 13.0669C5.99471 11.7621 6.18504 10.4207 6.76051 9.22888C7.33598 8.03706 8.26805 7.05385 9.42747 6.41562C10.5869 5.77739 11.9162 5.51577 13.231 5.66703C13.3304 5.67626 13.4269 5.70523 13.515 5.75225C13.603 5.79927 13.6808 5.8634 13.7438 5.94087C13.8067 6.01834 13.8536 6.1076 13.8816 6.20341C13.9096 6.29923 13.9182 6.39967 13.9069 6.49885C13.8955 6.59802 13.8645 6.69395 13.8157 6.78099C13.7668 6.86803 13.7011 6.94444 13.6223 7.00574C13.5435 7.06705 13.4533 7.112 13.3569 7.13798C13.2605 7.16396 13.1599 7.17044 13.061 7.15704C12.378 7.07807 11.6861 7.14444 11.0306 7.35177C10.375 7.5591 9.77078 7.90272 9.25743 8.36006C8.74409 8.81741 8.33327 9.37814 8.05193 10.0055C7.77059 10.6328 7.62509 11.3125 7.62499 12Z" fill="#F8F8F8"/>
</svg>
