<svg width="40" height="40" viewBox="0 0 40 40" fill="none" xmlns="http://www.w3.org/2000/svg">
<path d="M21.499 19.994L32.755 8.72699C32.9535 8.52743 33.0649 8.25731 33.0647 7.97578C33.0646 7.69426 32.9528 7.42428 32.754 7.22499C32.356 6.82899 31.655 6.82699 31.253 7.22699L20 18.494L8.74296 7.22399C8.34296 6.82899 7.64196 6.83099 7.24396 7.22599C7.14517 7.32438 7.06697 7.44147 7.01392 7.57041C6.96086 7.69935 6.93402 7.83756 6.93496 7.97699C6.93496 8.26099 7.04496 8.52699 7.24396 8.72399L18.5 19.993L7.24496 31.263C7.04635 31.4629 6.93512 31.7333 6.93568 32.0151C6.93624 32.2969 7.04855 32.5669 7.24796 32.766C7.44096 32.957 7.71396 33.067 7.99596 33.067H8.00196C8.28496 33.066 8.55796 32.955 8.74696 32.762L20 21.495L31.257 32.765C31.456 32.963 31.722 33.073 32.004 33.073C32.1434 33.0734 32.2816 33.0462 32.4105 32.993C32.5394 32.9399 32.6565 32.8617 32.7551 32.7631C32.8537 32.6645 32.9318 32.5474 32.985 32.4185C33.0382 32.2896 33.0654 32.1514 33.065 32.012C33.065 31.729 32.955 31.462 32.755 31.265L21.499 19.994Z" fill="#C70000"/>
</svg>
